<?xml version="1.0" encoding="utf-8"?>
<!-- Generator: Adobe Illustrator 23.0.1, SVG Export Plug-In . SVG Version: 6.00 Build 0)  -->
<svg version="1.1" id="Capa_1" xmlns="http://www.w3.org/2000/svg" xmlns:xlink="http://www.w3.org/1999/xlink" x="0px" y="0px"
	 viewBox="0 0 642.2 124.6" style="enable-background:new 0 0 642.2 124.6;" xml:space="preserve">
<style type="text/css">
	.st0{fill:#627EEA;}
	.st1{fill:#FFFFFF;}
	.st2{fill:#2C3647;}
	.st3{font-family:'Futura-Bold';}
	.st4{font-size:80px;}
	.st5{letter-spacing:-2.2;}
	.st6{letter-spacing:1.1;}
</style>
<title>Recurso 1</title>
<g id="fbb252d7-c3f2-475a-aa94-2828a5ef0902">
	<g>
		<path class="st0" d="M156,95.3v7H0v-7h14v-44l-14,3v-8l82.2-20.5c-2.5,8-2.9,16.4-1.2,24.5c2.5-0.8,5.2-1.8,8-3
			c3.8-1.6,7.5-3.5,11-5.7v53.7H156z"/>
		<circle class="st1" cx="38" cy="69.3" r="8"/>
		<rect x="63" y="61.3" class="st1" width="21" height="36"/>
		<rect x="117.2" y="22.6" class="st0" width="6.8" height="73"/>
		<path class="st0" d="M119,25.3c-2.7,0.4-28.4,15.5-29,16c-2-1.9,1.1-13.7,12-17c0,0-14-2-17,0c0,0,4-13,24-10c0,0,0-6-18-12
			c0,0,19-6,31,8v15H119z"/>
		<path class="st0" d="M123,25.3c2.7,0.4,28.4,15.5,29,16c2-1.9-1.1-13.7-12-17c0,0,14-2,17,0c0,0-4-13-24-10c0,0,0-6,18-12
			c0,0-19-6-31,8v15H123z"/>
		<text transform="matrix(0.9129 0 0 1 187.8579 97.1079)" class="st2 st3 st4 st5">W</text>
		<text transform="matrix(0.9129 0 0 1 268.9238 97.1079)" class="st2 st3 st4">o</text>
		<text transform="matrix(0.9129 0 0 1 320.0459 97.1079)" class="st2 st3 st4">r</text>
		<text transform="matrix(0.9129 0 0 1 354.0776 97.1079)" class="st2 st3 st4">k</text>
		<text transform="matrix(0.9129 0 0 1 405.0537 97.1079)" class="st0 st3 st4">ca</text>
		<text transform="matrix(0.9129 0 0 1 492.0332 97.1079)" class="st0 st3 st4 st6">t</text>
		<text transform="matrix(0.9129 0 0 1 520.2949 97.1079)" class="st0 st3 st4">ion</text>
	</g>
</g>
</svg>
